<?xml version="1.0" standalone="no"?>
<!DOCTYPE svg PUBLIC "-//W3C//DTD SVG 20010904//EN"
 "http://www.w3.org/TR/2001/REC-SVG-20010904/DTD/svg10.dtd">
<svg version="1.0" xmlns="http://www.w3.org/2000/svg"
 width="32.000000pt" height="32.000000pt" viewBox="0 0 32.000000 32.000000"
 preserveAspectRatio="xMidYMid meet">

<g transform="translate(0.000000,32.000000) scale(0.100000,-0.100000)"
fill="#000000" stroke="none">
<path d="M144 265 c-11 -8 -13 -14 -6 -19 6 -4 9 -14 5 -24 -3 -11 0 -9 11 6
19 25 41 29 53 8 7 -12 45 -36 57 -36 3 0 0 11 -6 25 -7 16 -19 25 -35 25 -12
0 -23 4 -23 9 0 15 -38 20 -56 6z"/>
<path d="M93 247 c-15 -6 -23 -19 -23 -34 0 -12 -4 -23 -9 -23 -5 0 -11 -9
-14 -20 -6 -23 16 -59 27 -42 4 6 14 9 24 5 11 -3 9 0 -5 11 -26 19 -30 41 -9
53 14 8 40 52 34 58 -2 1 -13 -2 -25 -8z"/>
<path d="M256 182 c-4 -6 -14 -9 -24 -5 -11 3 -9 0 6 -11 12 -10 22 -23 22
-31 0 -20 -21 -30 -30 -15 -5 9 -8 5 -7 -11 0 -13 -3 -32 -8 -43 -7 -16 -6
-17 14 -7 12 7 24 20 27 29 3 9 12 29 19 43 12 22 12 29 1 44 -9 12 -15 14
-20 7z"/>
<path d="M72 85 c7 -16 19 -25 35 -25 12 0 23 -4 23 -9 0 -5 9 -11 20 -14 23
-6 59 16 42 27 -6 4 -9 14 -5 24 3 11 0 9 -11 -5 -19 -26 -41 -30 -53 -9 -7
12 -45 36 -57 36 -3 0 0 -11 6 -25z"/>
</g>
</svg>
